<svg xmlns="http://www.w3.org/2000/svg" viewBox="0 0 469.32 79.6"><defs><style>.cls-1{fill:#dde05f;}.cls-2{fill:#42cccd;}</style></defs><title>logo</title><g id="Camada_1" data-name="Camada 1"><path class="cls-1" d="M385.71,244H347.92v6a9.25,9.25,0,0,0,9.25,9.25h28.54v55.08A9.25,9.25,0,0,0,395,323.6h6V244Z" transform="translate(-155.4 -244)"/><path class="cls-2" d="M456.46,250v-6H402.59v79.6h5.23a9.25,9.25,0,0,0,9.25-9.25V287.42h12.46a9.25,9.25,0,0,0,9.25-9.25v-2H417.06V259.28h30.15A9.25,9.25,0,0,0,456.46,250Z" transform="translate(-155.4 -244)"/><path class="cls-2" d="M503.88,291.63v-47h5.85a9.25,9.25,0,0,1,9.25,9.25v37.79a30.91,30.91,0,0,1-8.84,22.22,29.45,29.45,0,0,1-42.69,0,30.91,30.91,0,0,1-8.84-22.22v-47h5.85a9.25,9.25,0,0,1,9.25,9.25v37.74c0,8.47,6.89,15.62,15.09,15.62S503.88,300,503.88,291.63Z" transform="translate(-155.4 -244)"/><path class="cls-2" d="M543.23,253.88v52.92H564a9.25,9.25,0,0,1,9.25,9.25v6.27H537.48a9.25,9.25,0,0,1-9.25-9.25V244.64H534A9.25,9.25,0,0,1,543.23,253.88Z" transform="translate(-155.4 -244)"/><path class="cls-2" d="M594.72,253.88v52.92h20.76a9.25,9.25,0,0,1,9.25,9.25v6.27H589a9.25,9.25,0,0,1-9.25-9.25V244.64h5.76A9.25,9.25,0,0,1,594.72,253.88Z" transform="translate(-155.4 -244)"/><path class="cls-1" d="M155.4,298.95V244.53h24.94a23,23,0,0,1,17.63,8,27.51,27.51,0,0,1,7.36,19.3A27,27,0,0,1,198,291a23.18,23.18,0,0,1-17.63,8H169.68v14.1a9.25,9.25,0,0,1-9.25,9.25h-5ZM180.34,260h-1.42a9.25,9.25,0,0,0-9.25,9.25v14.2l10.66,0c5.84,0,10.71-5.36,10.71-11.72S186.16,260,180.34,260Z" transform="translate(-155.4 -244)"/><path class="cls-1" d="M228.34,247.18,259,322.3h-9.24a9.25,9.25,0,0,1-8.56-5.76l-2.46-6.05H214.44L212,316.53a9.25,9.25,0,0,1-8.56,5.76h-9.2l30.65-75.11A1.87,1.87,0,0,1,228.34,247.18ZM232.45,295l-3.5-8.89a2.5,2.5,0,0,0-4.64,0l-3.21,8a1.87,1.87,0,0,0,1.74,2.57h8.45A1.25,1.25,0,0,0,232.45,295Z" transform="translate(-155.4 -244)"/><path class="cls-1" d="M265.2,244.53h5a9.25,9.25,0,0,1,9.25,9.25V322.3h-5a9.25,9.25,0,0,1-9.25-9.25Z" transform="translate(-155.4 -244)"/><path class="cls-1" d="M331.07,282.86V244.34h5.08a9.25,9.25,0,0,1,9.25,9.25v65.65a1.87,1.87,0,0,1-3.22,1.3l-36.38-37.95a1.87,1.87,0,0,0-3.22,1.3v38.52h-5a9.25,9.25,0,0,1-9.25-9.25v-65.6a1.87,1.87,0,0,1,3.22-1.3l36.34,37.9A1.87,1.87,0,0,0,331.07,282.86Z" transform="translate(-155.4 -244)"/></g></svg>